<?xml version="1.0" encoding="UTF-8"?>
<svg xmlns="http://www.w3.org/2000/svg" xmlns:xlink="http://www.w3.org/1999/xlink" width="76pt" height="59pt" viewBox="0 0 76 59" version="1.1">
<g id="surface1">
<path style=" stroke:none;fill-rule:nonzero;fill:rgb(13.699341%,12.199402%,12.5%);fill-opacity:1;" d="M 34.941406 33.042969 L 36.964844 24.820313 L 39.117188 24.820313 L 41.144531 33.042969 L 39.378906 33.042969 L 39.027344 31.277344 L 37.066406 31.277344 L 36.703125 33.042969 Z M 38.054688 26.359375 L 37.3125 30.046875 L 38.789063 30.046875 L 38.0625 26.359375 Z M 44.414063 34.425781 C 44.644531 34.425781 44.808594 34.355469 44.898438 34.210938 C 44.992188 34.0625 45.039063 33.816406 45.039063 33.464844 L 45.039063 32.394531 L 44.976563 32.46875 C 44.667969 32.851563 44.238281 33.042969 43.683594 33.042969 C 43.136719 33.042969 42.746094 32.886719 42.523438 32.574219 C 42.300781 32.265625 42.1875 31.726563 42.1875 30.964844 L 42.1875 29.394531 C 42.1875 28.660156 42.320313 28.109375 42.574219 27.746094 C 42.832031 27.378906 43.222656 27.195313 43.742188 27.195313 C 44.277344 27.195313 44.726563 27.40625 45.089844 27.824219 L 45.140625 27.882813 L 45.140625 27.316406 L 46.75 27.316406 L 46.75 33.464844 C 46.75 34.070313 46.5625 34.53125 46.179688 34.835938 C 45.796875 35.144531 45.222656 35.296875 44.464844 35.296875 C 43.667969 35.296875 43.089844 35.171875 42.742188 34.921875 C 42.390625 34.671875 42.21875 34.269531 42.226563 33.710938 L 42.226563 33.542969 L 43.875 33.542969 L 43.875 33.710938 C 43.859375 33.945313 43.898438 34.121094 43.992188 34.242188 C 44.082031 34.363281 44.222656 34.425781 44.414063 34.425781 Z M 44.433594 28.222656 C 44.230469 28.222656 44.078125 28.304688 43.980469 28.464844 C 43.886719 28.628906 43.835938 28.878906 43.835938 29.21875 L 43.835938 30.792969 C 43.835938 31.289063 43.875 31.617188 43.953125 31.777344 C 44.03125 31.9375 44.191406 32.015625 44.433594 32.015625 C 44.679688 32.015625 44.84375 31.933594 44.921875 31.769531 C 45 31.609375 45.039063 31.273438 45.039063 30.761719 L 45.039063 29.472656 C 45.039063 28.964844 45 28.628906 44.921875 28.464844 C 44.84375 28.304688 44.679688 28.222656 44.433594 28.222656 Z M 48.078125 33.042969 L 48.078125 27.316406 L 49.710938 27.316406 L 49.710938 33.042969 Z M 48.066406 24.894531 L 49.710938 24.894531 L 49.710938 26.253906 L 48.066406 26.253906 Z M 51.199219 33.042969 L 51.199219 24.820313 L 52.832031 24.820313 L 52.832031 33.042969 Z M 56.1875 33.160156 C 55.425781 33.160156 54.878906 32.984375 54.539063 32.636719 C 54.203125 32.289063 54.03125 31.714844 54.03125 30.921875 L 54.03125 29.792969 C 54.03125 28.84375 54.207031 28.171875 54.546875 27.78125 C 54.894531 27.390625 55.488281 27.195313 56.328125 27.195313 C 57.214844 27.195313 57.820313 27.363281 58.140625 27.699219 C 58.460938 28.039063 58.621094 28.675781 58.621094 29.609375 L 58.621094 30.441406 L 55.652344 30.441406 L 55.652344 30.617188 C 55.652344 31.28125 55.695313 31.71875 55.785156 31.933594 C 55.875 32.148438 56.050781 32.253906 56.328125 32.253906 C 56.589844 32.253906 56.769531 32.179688 56.871094 32.027344 C 56.976563 31.871094 57.019531 31.621094 57 31.265625 L 57 31.097656 L 58.621094 31.097656 L 58.621094 31.265625 C 58.636719 31.898438 58.4375 32.371094 58.03125 32.6875 C 57.625 33.003906 57.011719 33.160156 56.1875 33.160156 Z M 57 29.570313 L 57 29.25 C 57 28.804688 56.953125 28.503906 56.859375 28.34375 C 56.765625 28.179688 56.589844 28.101563 56.328125 28.101563 C 56.066406 28.101563 55.890625 28.199219 55.792969 28.394531 C 55.699219 28.585938 55.652344 28.953125 55.652344 29.488281 L 55.652344 29.570313 Z M 59.761719 33.042969 L 59.761719 27.316406 L 61.394531 27.316406 L 61.394531 27.855469 C 61.746094 27.414063 62.257813 27.195313 62.921875 27.195313 C 63.394531 27.195313 63.742188 27.320313 63.976563 27.570313 C 64.207031 27.824219 64.324219 28.199219 64.324219 28.703125 L 64.324219 33.042969 L 62.691406 33.042969 L 62.691406 28.875 C 62.691406 28.640625 62.644531 28.472656 62.550781 28.367188 C 62.460938 28.261719 62.316406 28.210938 62.109375 28.210938 C 61.832031 28.210938 61.640625 28.308594 61.53125 28.507813 C 61.421875 28.703125 61.375 29.046875 61.394531 29.535156 L 61.394531 33.042969 Z M 68.808594 33.089844 C 68.488281 33.136719 68.125 33.160156 67.714844 33.160156 C 67.195313 33.160156 66.804688 33.019531 66.542969 32.734375 C 66.28125 32.453125 66.152344 32.027344 66.152344 31.464844 L 66.152344 28.328125 L 65.28125 28.328125 L 65.28125 27.316406 L 66.152344 27.316406 L 66.152344 26.398438 L 67.785156 25.773438 L 67.785156 27.316406 L 68.808594 27.316406 L 68.808594 28.328125 L 67.785156 28.328125 L 67.785156 31.472656 C 67.785156 31.75 67.816406 31.933594 67.878906 32.019531 C 67.945313 32.101563 68.082031 32.148438 68.292969 32.148438 C 68.480469 32.140625 68.652344 32.125 68.808594 32.097656 L 68.808594 33.089844 "/>
<path style=" stroke:none;fill-rule:evenodd;fill:rgb(0%,49.398804%,77.598572%);fill-opacity:1;" d="M 19.464844 24.148438 C 20.113281 24.148438 20.640625 24.675781 20.640625 25.324219 C 20.640625 25.976563 20.113281 26.503906 19.464844 26.503906 C 18.8125 26.503906 18.285156 25.976563 18.285156 25.324219 C 18.285156 24.675781 18.8125 24.148438 19.464844 24.148438 "/>
<path style=" stroke:none;fill-rule:evenodd;fill:rgb(0%,49.398804%,77.598572%);fill-opacity:1;" d="M 19.464844 21.304688 C 19.933594 21.304688 20.3125 21.6875 20.3125 22.15625 C 20.3125 22.628906 19.933594 23.007813 19.464844 23.007813 C 18.992188 23.007813 18.609375 22.628906 18.609375 22.15625 C 18.609375 21.6875 18.992188 21.304688 19.464844 21.304688 "/>
<path style=" stroke:none;fill-rule:evenodd;fill:rgb(0%,49.398804%,77.598572%);fill-opacity:1;" d="M 19.464844 18.988281 C 19.800781 18.988281 20.078125 19.265625 20.078125 19.605469 C 20.078125 19.945313 19.800781 20.222656 19.464844 20.222656 C 19.121094 20.222656 18.847656 19.945313 18.847656 19.605469 C 18.847656 19.265625 19.121094 18.988281 19.464844 18.988281 "/>
<path style=" stroke:none;fill-rule:evenodd;fill:rgb(0%,49.398804%,77.598572%);fill-opacity:1;" d="M 19.464844 16.90625 C 19.683594 16.90625 19.863281 17.089844 19.863281 17.308594 C 19.863281 17.53125 19.683594 17.710938 19.464844 17.710938 C 19.242188 17.710938 19.0625 17.53125 19.0625 17.308594 C 19.0625 17.089844 19.242188 16.90625 19.464844 16.90625 "/>
<path style=" stroke:none;fill-rule:evenodd;fill:rgb(0%,49.398804%,77.598572%);fill-opacity:1;" d="M 23.066406 25.613281 C 23.53125 26.066406 23.542969 26.8125 23.089844 27.28125 C 22.636719 27.746094 21.890625 27.757813 21.421875 27.304688 C 20.953125 26.851563 20.945313 26.105469 21.398438 25.636719 C 21.851563 25.167969 22.597656 25.160156 23.066406 25.613281 "/>
<path style=" stroke:none;fill-rule:evenodd;fill:rgb(0%,49.398804%,77.598572%);fill-opacity:1;" d="M 25.042969 23.574219 C 25.378906 23.902344 25.386719 24.441406 25.058594 24.777344 C 24.734375 25.117188 24.195313 25.125 23.855469 24.796875 C 23.519531 24.46875 23.511719 23.929688 23.839844 23.59375 C 24.164063 23.253906 24.703125 23.246094 25.042969 23.574219 "/>
<path style=" stroke:none;fill-rule:evenodd;fill:rgb(0%,49.398804%,77.598572%);fill-opacity:1;" d="M 26.65625 21.910156 C 26.898438 22.148438 26.90625 22.539063 26.667969 22.78125 C 26.429688 23.027344 26.042969 23.03125 25.796875 22.792969 C 25.554688 22.558594 25.546875 22.167969 25.785156 21.925781 C 26.023438 21.679688 26.410156 21.675781 26.65625 21.910156 "/>
<path style=" stroke:none;fill-rule:evenodd;fill:rgb(0%,49.398804%,77.598572%);fill-opacity:1;" d="M 28.105469 20.417969 C 28.265625 20.570313 28.269531 20.828125 28.113281 20.984375 C 27.960938 21.144531 27.707031 21.148438 27.546875 20.992188 C 27.386719 20.839844 27.382813 20.585938 27.535156 20.425781 C 27.691406 20.265625 27.945313 20.261719 28.105469 20.417969 "/>
<path style=" stroke:none;fill-rule:evenodd;fill:rgb(0%,49.398804%,77.598572%);fill-opacity:1;" d="M 24.628906 29.171875 C 24.648438 29.824219 24.136719 30.367188 23.484375 30.386719 C 22.835938 30.40625 22.289063 29.894531 22.269531 29.242188 C 22.25 28.59375 22.761719 28.046875 23.414063 28.03125 C 24.066406 28.011719 24.609375 28.523438 24.628906 29.171875 "/>
<path style=" stroke:none;fill-rule:evenodd;fill:rgb(0%,49.398804%,77.598572%);fill-opacity:1;" d="M 27.46875 29.085938 C 27.480469 29.558594 27.113281 29.949219 26.640625 29.964844 C 26.171875 29.976563 25.78125 29.609375 25.765625 29.136719 C 25.75 28.667969 26.121094 28.277344 26.589844 28.261719 C 27.058594 28.246094 27.453125 28.617188 27.46875 29.085938 "/>
<path style=" stroke:none;fill-rule:evenodd;fill:rgb(0%,49.398804%,77.598572%);fill-opacity:1;" d="M 29.78125 29.019531 C 29.792969 29.355469 29.527344 29.640625 29.183594 29.652344 C 28.84375 29.660156 28.5625 29.394531 28.550781 29.054688 C 28.542969 28.714844 28.808594 28.429688 29.148438 28.421875 C 29.488281 28.410156 29.773438 28.675781 29.78125 29.019531 "/>
<path style=" stroke:none;fill-rule:evenodd;fill:rgb(0%,49.398804%,77.598572%);fill-opacity:1;" d="M 31.863281 28.957031 C 31.871094 29.175781 31.695313 29.363281 31.472656 29.367188 C 31.253906 29.375 31.066406 29.199219 31.058594 28.980469 C 31.054688 28.757813 31.226563 28.574219 31.449219 28.566406 C 31.671875 28.558594 31.855469 28.734375 31.863281 28.957031 "/>
<path style=" stroke:none;fill-rule:evenodd;fill:rgb(0%,49.398804%,77.598572%);fill-opacity:1;" d="M 23.273438 32.816406 C 22.832031 33.296875 22.085938 33.332031 21.605469 32.890625 C 21.125 32.453125 21.089844 31.707031 21.53125 31.226563 C 21.96875 30.746094 22.714844 30.710938 23.195313 31.152344 C 23.675781 31.589844 23.710938 32.335938 23.273438 32.816406 "/>
<path style=" stroke:none;fill-rule:evenodd;fill:rgb(0%,49.398804%,77.598572%);fill-opacity:1;" d="M 25.367188 34.730469 C 25.050781 35.078125 24.511719 35.105469 24.164063 34.785156 C 23.816406 34.46875 23.792969 33.929688 24.109375 33.585938 C 24.429688 33.234375 24.96875 33.210938 25.3125 33.53125 C 25.660156 33.847656 25.683594 34.386719 25.367188 34.730469 "/>
<path style=" stroke:none;fill-rule:evenodd;fill:rgb(0%,49.398804%,77.598572%);fill-opacity:1;" d="M 27.078125 36.292969 C 26.847656 36.546875 26.460938 36.5625 26.207031 36.332031 C 25.957031 36.105469 25.941406 35.714844 26.167969 35.464844 C 26.398438 35.214844 26.789063 35.195313 27.039063 35.425781 C 27.289063 35.65625 27.308594 36.042969 27.078125 36.292969 "/>
<path style=" stroke:none;fill-rule:evenodd;fill:rgb(0%,49.398804%,77.598572%);fill-opacity:1;" d="M 28.613281 37.699219 C 28.464844 37.863281 28.210938 37.875 28.046875 37.722656 C 27.882813 37.574219 27.871094 37.320313 28.023438 37.15625 C 28.171875 36.992188 28.425781 36.980469 28.589844 37.132813 C 28.753906 37.28125 28.765625 37.535156 28.613281 37.699219 "/>
<path style=" stroke:none;fill-rule:evenodd;fill:rgb(0%,49.398804%,77.598572%);fill-opacity:1;" d="M 19.761719 34.488281 C 19.109375 34.527344 18.550781 34.03125 18.511719 33.378906 C 18.472656 32.730469 18.96875 32.171875 19.617188 32.132813 C 20.269531 32.09375 20.828125 32.589844 20.867188 33.238281 C 20.90625 33.890625 20.410156 34.449219 19.761719 34.488281 "/>
<path style=" stroke:none;fill-rule:evenodd;fill:rgb(0%,49.398804%,77.598572%);fill-opacity:1;" d="M 19.929688 37.324219 C 19.460938 37.351563 19.058594 36.992188 19.03125 36.523438 C 19 36.054688 19.359375 35.652344 19.828125 35.621094 C 20.296875 35.59375 20.703125 35.953125 20.730469 36.421875 C 20.757813 36.890625 20.398438 37.292969 19.929688 37.324219 "/>
<path style=" stroke:none;fill-rule:evenodd;fill:rgb(0%,49.398804%,77.598572%);fill-opacity:1;" d="M 20.070313 39.632813 C 19.730469 39.65625 19.4375 39.394531 19.417969 39.054688 C 19.398438 38.71875 19.65625 38.425781 19.996094 38.40625 C 20.335938 38.386719 20.625 38.644531 20.648438 38.980469 C 20.667969 39.320313 20.410156 39.613281 20.070313 39.632813 "/>
<path style=" stroke:none;fill-rule:evenodd;fill:rgb(0%,49.398804%,77.598572%);fill-opacity:1;" d="M 20.195313 41.710938 C 19.972656 41.726563 19.78125 41.554688 19.769531 41.335938 C 19.757813 41.113281 19.925781 40.921875 20.148438 40.910156 C 20.367188 40.898438 20.558594 41.066406 20.570313 41.285156 C 20.585938 41.507813 20.414063 41.699219 20.195313 41.710938 "/>
<path style=" stroke:none;fill-rule:evenodd;fill:rgb(0%,49.398804%,77.598572%);fill-opacity:1;" d="M 16.078125 33.238281 C 15.582031 32.816406 15.527344 32.070313 15.953125 31.578125 C 16.375 31.082031 17.121094 31.027344 17.613281 31.453125 C 18.109375 31.875 18.164063 32.621094 17.738281 33.113281 C 17.316406 33.609375 16.570313 33.664063 16.078125 33.238281 "/>
<path style=" stroke:none;fill-rule:evenodd;fill:rgb(0%,49.398804%,77.598572%);fill-opacity:1;" d="M 14.222656 35.394531 C 13.867188 35.085938 13.828125 34.550781 14.132813 34.191406 C 14.441406 33.835938 14.976563 33.796875 15.335938 34.101563 C 15.691406 34.410156 15.730469 34.945313 15.425781 35.304688 C 15.117188 35.660156 14.582031 35.699219 14.222656 35.394531 "/>
<path style=" stroke:none;fill-rule:evenodd;fill:rgb(0%,49.398804%,77.598572%);fill-opacity:1;" d="M 12.714844 37.148438 C 12.457031 36.929688 12.425781 36.539063 12.648438 36.28125 C 12.871094 36.023438 13.257813 35.996094 13.515625 36.214844 C 13.773438 36.4375 13.804688 36.828125 13.582031 37.085938 C 13.359375 37.34375 12.972656 37.371094 12.714844 37.148438 "/>
<path style=" stroke:none;fill-rule:evenodd;fill:rgb(0%,49.398804%,77.598572%);fill-opacity:1;" d="M 11.355469 38.726563 C 11.1875 38.585938 11.167969 38.332031 11.3125 38.160156 C 11.460938 37.992188 11.710938 37.972656 11.878906 38.117188 C 12.046875 38.265625 12.066406 38.519531 11.921875 38.683594 C 11.777344 38.851563 11.523438 38.871094 11.355469 38.726563 "/>
<path style=" stroke:none;fill-rule:evenodd;fill:rgb(0%,49.398804%,77.598572%);fill-opacity:1;" d="M 14.300781 29.78125 C 14.242188 29.132813 14.722656 28.558594 15.371094 28.5 C 16.019531 28.441406 16.59375 28.917969 16.652344 29.566406 C 16.710938 30.214844 16.230469 30.789063 15.582031 30.847656 C 14.933594 30.90625 14.359375 30.429688 14.300781 29.78125 "/>
<path style=" stroke:none;fill-rule:evenodd;fill:rgb(0%,49.398804%,77.598572%);fill-opacity:1;" d="M 11.472656 30.035156 C 11.429688 29.566406 11.777344 29.152344 12.242188 29.109375 C 12.710938 29.070313 13.125 29.414063 13.167969 29.882813 C 13.210938 30.351563 12.867188 30.765625 12.398438 30.808594 C 11.929688 30.847656 11.515625 30.503906 11.472656 30.035156 "/>
<path style=" stroke:none;fill-rule:evenodd;fill:rgb(0%,49.398804%,77.598572%);fill-opacity:1;" d="M 9.167969 30.246094 C 9.136719 29.90625 9.386719 29.605469 9.722656 29.578125 C 10.0625 29.546875 10.359375 29.796875 10.390625 30.132813 C 10.421875 30.472656 10.171875 30.773438 9.835938 30.800781 C 9.496094 30.832031 9.195313 30.582031 9.167969 30.246094 "/>
<path style=" stroke:none;fill-rule:evenodd;fill:rgb(0%,49.398804%,77.598572%);fill-opacity:1;" d="M 7.09375 30.433594 C 7.074219 30.210938 7.234375 30.015625 7.457031 29.996094 C 7.675781 29.976563 7.871094 30.140625 7.890625 30.359375 C 7.914063 30.582031 7.75 30.777344 7.527344 30.796875 C 7.308594 30.816406 7.113281 30.652344 7.09375 30.433594 "/>
<path style=" stroke:none;fill-rule:evenodd;fill:rgb(0%,49.398804%,77.598572%);fill-opacity:1;" d="M 15.4375 26.0625 C 15.847656 25.554688 16.589844 25.476563 17.09375 25.886719 C 17.601563 26.296875 17.679688 27.039063 17.269531 27.542969 C 16.859375 28.050781 16.117188 28.128906 15.613281 27.71875 C 15.105469 27.308594 15.027344 26.566406 15.4375 26.0625 "/>
<path style=" stroke:none;fill-rule:evenodd;fill:rgb(0%,49.398804%,77.598572%);fill-opacity:1;" d="M 13.226563 24.273438 C 13.523438 23.910156 14.058594 23.851563 14.425781 24.148438 C 14.792969 24.445313 14.847656 24.980469 14.550781 25.347656 C 14.257813 25.710938 13.71875 25.769531 13.355469 25.472656 C 12.988281 25.175781 12.933594 24.640625 13.226563 24.273438 "/>
<path style=" stroke:none;fill-rule:evenodd;fill:rgb(0%,49.398804%,77.598572%);fill-opacity:1;" d="M 11.429688 22.820313 C 11.640625 22.554688 12.03125 22.511719 12.292969 22.726563 C 12.558594 22.941406 12.597656 23.328125 12.386719 23.59375 C 12.171875 23.855469 11.785156 23.898438 11.519531 23.683594 C 11.253906 23.46875 11.214844 23.082031 11.429688 22.820313 "/>
<path style=" stroke:none;fill-rule:evenodd;fill:rgb(0%,49.398804%,77.598572%);fill-opacity:1;" d="M 9.808594 21.507813 C 9.949219 21.335938 10.203125 21.308594 10.375 21.449219 C 10.546875 21.589844 10.574219 21.84375 10.433594 22.015625 C 10.292969 22.1875 10.042969 22.214844 9.867188 22.074219 C 9.695313 21.933594 9.667969 21.679688 9.808594 21.507813 "/>
</g>
</svg>
